<?xml version="1.0" encoding="UTF-8"?>
<svg xmlns="http://www.w3.org/2000/svg" xmlns:xlink="http://www.w3.org/1999/xlink" width="2000" height="2000" viewBox="0 0 2000 2000">
<defs>
<clipPath id="clip-0">

</clipPath>
<clipPath id="clip-1">
<path clip-rule="nonzero" d="M 1000 585.449219 C 967.992188 585.449219 941.953125 611.488281 941.953125 643.488281 L 1058.050781 643.488281 C 1058.050781 611.488281 1032.011719 585.449219 1000 585.449219 Z M 1000 585.449219 "/>
</clipPath>
<clipPath id="clip-2">
<path clip-rule="nonzero" d="M 1000 585.449219 C 967.992188 585.449219 941.953125 611.488281 941.953125 643.488281 L 1058.050781 643.488281 C 1058.050781 611.488281 1032.011719 585.449219 1000 585.449219 "/>
</clipPath>
<linearGradient id="linear-pattern-0" gradientUnits="userSpaceOnUse" x1="0.285787" y1="0" x2="0.357614" y2="0" gradientTransform="matrix(970.435, 1292.87, -1292.87, 970.435, 678.516, 205.53)">
<stop offset="0" stop-color="rgb(28.977966%, 67.388916%, 79.058838%)" stop-opacity="1"/>
<stop offset="0.125" stop-color="rgb(28.897095%, 67.25769%, 78.877258%)" stop-opacity="1"/>
<stop offset="0.25" stop-color="rgb(28.738403%, 66.993713%, 78.511047%)" stop-opacity="1"/>
<stop offset="0.375" stop-color="rgb(28.578186%, 66.729736%, 78.146362%)" stop-opacity="1"/>
<stop offset="0.5" stop-color="rgb(28.419495%, 66.467285%, 77.784729%)" stop-opacity="1"/>
<stop offset="0.625" stop-color="rgb(28.259277%, 66.20636%, 77.423096%)" stop-opacity="1"/>
<stop offset="0.75" stop-color="rgb(28.100586%, 65.945435%, 77.062988%)" stop-opacity="1"/>
<stop offset="0.875" stop-color="rgb(27.94342%, 65.686035%, 76.705933%)" stop-opacity="1"/>
<stop offset="1" stop-color="rgb(27.784729%, 65.426636%, 76.347351%)" stop-opacity="1"/>
</linearGradient>
<clipPath id="clip-3">
<path clip-rule="nonzero" d="M 691 333 L 1309 333 L 1309 1100 L 691 1100 Z M 691 333 "/>
</clipPath>
<clipPath id="clip-4">
<path clip-rule="nonzero" d="M 920.304688 473.289062 C 920.304688 429.351562 956.054688 393.601562 1000 393.601562 C 1043.941406 393.601562 1079.699219 429.351562 1079.699219 473.289062 Z M 1308.808594 1006.019531 L 1283.300781 473.289062 L 1139.699219 473.289062 C 1139.699219 396.261719 1077.03125 333.601562 1000 333.601562 C 922.972656 333.601562 860.304688 396.261719 860.304688 473.289062 L 716.695312 473.289062 L 691.191406 1006.019531 C 688.742188 1057.121094 729.519531 1099.898438 780.6875 1099.898438 L 840.257812 1099.898438 C 802.988281 1099.898438 773.289062 1068.738281 775.070312 1031.519531 L 793.648438 643.488281 L 898.25 643.488281 C 898.25 587.390625 943.894531 541.738281 1000 541.738281 C 1056.109375 541.738281 1101.75 587.390625 1101.75 643.488281 L 1206.351562 643.488281 L 1224.929688 1031.519531 C 1226.710938 1068.738281 1197.011719 1099.898438 1159.738281 1099.898438 L 1219.308594 1099.898438 C 1270.480469 1099.898438 1311.261719 1057.121094 1308.808594 1006.019531 Z M 1308.808594 1006.019531 "/>
</clipPath>
<clipPath id="clip-5">
<path clip-rule="nonzero" d="M 920.304688 473.289062 C 920.304688 429.351562 956.054688 393.601562 1000 393.601562 C 1043.941406 393.601562 1079.699219 429.351562 1079.699219 473.289062 Z M 1308.808594 1006.019531 L 1283.300781 473.289062 L 1139.699219 473.289062 C 1139.699219 396.261719 1077.03125 333.601562 1000 333.601562 C 922.972656 333.601562 860.304688 396.261719 860.304688 473.289062 L 716.695312 473.289062 L 691.191406 1006.019531 C 688.742188 1057.121094 729.519531 1099.898438 780.6875 1099.898438 L 840.257812 1099.898438 C 802.988281 1099.898438 773.289062 1068.738281 775.070312 1031.519531 L 793.648438 643.488281 L 898.25 643.488281 C 898.25 587.390625 943.894531 541.738281 1000 541.738281 C 1056.109375 541.738281 1101.75 587.390625 1101.75 643.488281 L 1206.351562 643.488281 L 1224.929688 1031.519531 C 1226.710938 1068.738281 1197.011719 1099.898438 1159.738281 1099.898438 L 1219.308594 1099.898438 C 1270.480469 1099.898438 1311.261719 1057.121094 1308.808594 1006.019531 "/>
</clipPath>
<linearGradient id="linear-pattern-1" gradientUnits="userSpaceOnUse" x1="0.0671596" y1="0" x2="0.677447" y2="0" gradientTransform="matrix(970.435, 1292.87, -1292.87, 970.435, 611.315, 255.97)">
<stop offset="0" stop-color="rgb(33.032227%, 74.128723%, 88.449097%)" stop-opacity="1"/>
<stop offset="0.015625" stop-color="rgb(32.9422%, 73.974609%, 88.233948%)" stop-opacity="1"/>
<stop offset="0.03125" stop-color="rgb(32.759094%, 73.670959%, 87.806702%)" stop-opacity="1"/>
<stop offset="0.046875" stop-color="rgb(32.577515%, 73.365784%, 87.380981%)" stop-opacity="1"/>
<stop offset="0.0625" stop-color="rgb(32.397461%, 73.062134%, 86.955261%)" stop-opacity="1"/>
<stop offset="0.078125" stop-color="rgb(32.214355%, 72.76001%, 86.532593%)" stop-opacity="1"/>
<stop offset="0.09375" stop-color="rgb(32.034302%, 72.459412%, 86.112976%)" stop-opacity="1"/>
<stop offset="0.109375" stop-color="rgb(31.855774%, 72.158813%, 85.693359%)" stop-opacity="1"/>
<stop offset="0.125" stop-color="rgb(31.67572%, 71.861267%, 85.276794%)" stop-opacity="1"/>
<stop offset="0.140625" stop-color="rgb(31.497192%, 71.563721%, 84.861755%)" stop-opacity="1"/>
<stop offset="0.15625" stop-color="rgb(31.32019%, 71.2677%, 84.448242%)" stop-opacity="1"/>
<stop offset="0.171875" stop-color="rgb(31.141663%, 70.97168%, 84.036255%)" stop-opacity="1"/>
<stop offset="0.1875" stop-color="rgb(30.964661%, 70.677185%, 83.627319%)" stop-opacity="1"/>
<stop offset="0.203125" stop-color="rgb(30.787659%, 70.384216%, 83.216858%)" stop-opacity="1"/>
<stop offset="0.21875" stop-color="rgb(30.612183%, 70.091248%, 82.810974%)" stop-opacity="1"/>
<stop offset="0.234375" stop-color="rgb(30.436707%, 69.801331%, 82.40509%)" stop-opacity="1"/>
<stop offset="0.25" stop-color="rgb(30.26123%, 69.511414%, 82.002258%)" stop-opacity="1"/>
<stop offset="0.265625" stop-color="rgb(30.08728%, 69.223022%, 81.600952%)" stop-opacity="1"/>
<stop offset="0.28125" stop-color="rgb(29.91333%, 68.934631%, 81.201172%)" stop-opacity="1"/>
<stop offset="0.296875" stop-color="rgb(29.73938%, 68.647766%, 80.802917%)" stop-opacity="1"/>
<stop offset="0.3125" stop-color="rgb(29.566956%, 68.362427%, 80.407715%)" stop-opacity="1"/>
<stop offset="0.328125" stop-color="rgb(29.394531%, 68.077087%, 80.010986%)" stop-opacity="1"/>
<stop offset="0.34375" stop-color="rgb(29.223633%, 67.791748%, 79.61731%)" stop-opacity="1"/>
<stop offset="0.359375" stop-color="rgb(29.052734%, 67.50946%, 79.226685%)" stop-opacity="1"/>
<stop offset="0.375" stop-color="rgb(28.88031%, 67.228699%, 78.837585%)" stop-opacity="1"/>
<stop offset="0.390625" stop-color="rgb(28.710938%, 66.947937%, 78.448486%)" stop-opacity="1"/>
<stop offset="0.40625" stop-color="rgb(28.541565%, 66.668701%, 78.062439%)" stop-opacity="1"/>
<stop offset="0.421875" stop-color="rgb(28.372192%, 66.389465%, 77.677917%)" stop-opacity="1"/>
<stop offset="0.4375" stop-color="rgb(28.20282%, 66.113281%, 77.294922%)" stop-opacity="1"/>
<stop offset="0.453125" stop-color="rgb(28.034973%, 65.837097%, 76.913452%)" stop-opacity="1"/>
<stop offset="0.46875" stop-color="rgb(27.868652%, 65.560913%, 76.533508%)" stop-opacity="1"/>
<stop offset="0.484375" stop-color="rgb(27.69928%, 65.286255%, 76.153564%)" stop-opacity="1"/>
<stop offset="0.5" stop-color="rgb(27.532959%, 65.013123%, 75.778198%)" stop-opacity="1"/>
<stop offset="0.515625" stop-color="rgb(27.368164%, 64.741516%, 75.402832%)" stop-opacity="1"/>
<stop offset="0.53125" stop-color="rgb(27.201843%, 64.46991%, 75.028992%)" stop-opacity="1"/>
<stop offset="0.546875" stop-color="rgb(27.037048%, 64.199829%, 74.658203%)" stop-opacity="1"/>
<stop offset="0.5625" stop-color="rgb(26.873779%, 63.931274%, 74.287415%)" stop-opacity="1"/>
<stop offset="0.578125" stop-color="rgb(26.708984%, 63.66272%, 73.919678%)" stop-opacity="1"/>
<stop offset="0.59375" stop-color="rgb(26.545715%, 63.394165%, 73.551941%)" stop-opacity="1"/>
<stop offset="0.609375" stop-color="rgb(26.382446%, 63.128662%, 73.18573%)" stop-opacity="1"/>
<stop offset="0.625" stop-color="rgb(26.220703%, 62.861633%, 72.821045%)" stop-opacity="1"/>
<stop offset="0.640625" stop-color="rgb(26.05896%, 62.597656%, 72.459412%)" stop-opacity="1"/>
<stop offset="0.65625" stop-color="rgb(25.897217%, 62.335205%, 72.099304%)" stop-opacity="1"/>
<stop offset="0.671875" stop-color="rgb(25.737%, 62.072754%, 71.739197%)" stop-opacity="1"/>
<stop offset="0.6875" stop-color="rgb(25.575256%, 61.811829%, 71.380615%)" stop-opacity="1"/>
<stop offset="0.703125" stop-color="rgb(25.416565%, 61.552429%, 71.025085%)" stop-opacity="1"/>
<stop offset="0.71875" stop-color="rgb(25.257874%, 61.29303%, 70.671082%)" stop-opacity="1"/>
<stop offset="0.734375" stop-color="rgb(25.099182%, 61.035156%, 70.317078%)" stop-opacity="1"/>
<stop offset="0.75" stop-color="rgb(24.940491%, 60.777283%, 69.966125%)" stop-opacity="1"/>
<stop offset="0.765625" stop-color="rgb(24.783325%, 60.520935%, 69.615173%)" stop-opacity="1"/>
<stop offset="0.78125" stop-color="rgb(24.624634%, 60.264587%, 69.267273%)" stop-opacity="1"/>
<stop offset="0.796875" stop-color="rgb(24.468994%, 60.009766%, 68.919373%)" stop-opacity="1"/>
<stop offset="0.8125" stop-color="rgb(24.313354%, 59.757996%, 68.574524%)" stop-opacity="1"/>
<stop offset="0.828125" stop-color="rgb(24.157715%, 59.5047%, 68.229675%)" stop-opacity="1"/>
<stop offset="0.84375" stop-color="rgb(24.002075%, 59.25293%, 67.887878%)" stop-opacity="1"/>
<stop offset="0.859375" stop-color="rgb(23.847961%, 59.002686%, 67.547607%)" stop-opacity="1"/>
<stop offset="0.875" stop-color="rgb(23.693848%, 58.752441%, 67.205811%)" stop-opacity="1"/>
<stop offset="0.890625" stop-color="rgb(23.539734%, 58.503723%, 66.867065%)" stop-opacity="1"/>
<stop offset="0.90625" stop-color="rgb(23.387146%, 58.256531%, 66.531372%)" stop-opacity="1"/>
<stop offset="0.921875" stop-color="rgb(23.234558%, 58.009338%, 66.195679%)" stop-opacity="1"/>
<stop offset="0.9375" stop-color="rgb(23.08197%, 57.763672%, 65.861511%)" stop-opacity="1"/>
<stop offset="0.953125" stop-color="rgb(22.930908%, 57.519531%, 65.52887%)" stop-opacity="1"/>
<stop offset="0.96875" stop-color="rgb(22.781372%, 57.275391%, 65.19928%)" stop-opacity="1"/>
<stop offset="0.984375" stop-color="rgb(22.628784%, 57.032776%, 64.86969%)" stop-opacity="1"/>
<stop offset="1" stop-color="rgb(22.479248%, 56.790161%, 64.541626%)" stop-opacity="1"/>
</linearGradient>
</defs>

<g clip-path="url(#clip-0)">
<g clip-path="url(#clip-1)">
<g clip-path="url(#clip-2)">
<path fill-rule="nonzero" fill="url(#linear-pattern-0)" d="M 1016.210938 529.710938 L 914.085938 606.367188 L 983.789062 699.230469 L 1085.914062 622.574219 Z M 1016.210938 529.710938 "/>
</g>
</g>
</g>
<g clip-path="url(#clip-3)">
<g clip-path="url(#clip-4)">
<g clip-path="url(#clip-5)">
<path fill-rule="nonzero" fill="url(#linear-pattern-1)" d="M 1086.921875 34.726562 L 320.835938 609.753906 L 913.082031 1398.773438 L 1679.167969 823.746094 Z M 1086.921875 34.726562 "/>
</g>
</g>
</g>
<path fill-rule="nonzero" fill="rgb(10.063171%, 9.384155%, 9.017944%)" fill-opacity="1" d="M 689.441406 1411.640625 L 632.804688 1411.640625 C 631.953125 1392.980469 619.757812 1383.640625 596.210938 1383.640625 C 575.632812 1383.640625 565.347656 1390.320312 565.347656 1403.691406 C 565.347656 1409.839844 568.101562 1414.300781 573.617188 1417.050781 C 578.28125 1419.390625 593.238281 1423.730469 618.484375 1430.101562 C 642.453125 1436.25 659.851562 1442.71875 670.667969 1449.511719 C 689.332031 1460.960938 698.667969 1478.140625 698.667969 1501.050781 C 698.667969 1526.089844 688.804688 1545.390625 669.078125 1558.96875 C 651.894531 1570.851562 629.304688 1576.789062 601.300781 1576.789062 C 567.359375 1576.789062 541.480469 1568.621094 523.660156 1552.28125 C 507.960938 1538.070312 499.898438 1518.769531 499.480469 1494.371094 L 559.300781 1494.371094 C 560.570312 1518.558594 575.3125 1530.648438 603.527344 1530.648438 C 626.648438 1530.648438 638.210938 1522.910156 638.210938 1507.421875 C 638.210938 1500.210938 635.1875 1494.851562 629.144531 1491.351562 C 623.097656 1487.851562 608.089844 1482.710938 584.117188 1475.921875 C 555.054688 1467.640625 535.539062 1459.269531 525.570312 1450.78125 C 513.902344 1440.808594 508.070312 1426.390625 508.070312 1407.5 C 508.070312 1385.019531 517.402344 1367.308594 536.070312 1354.359375 C 552.402344 1343.121094 573.300781 1337.5 598.757812 1337.5 C 629.089844 1337.5 652.214844 1344.820312 668.121094 1359.460938 C 681.910156 1372.179688 689.015625 1389.578125 689.441406 1411.640625 "/>
<path fill-rule="nonzero" fill="rgb(10.063171%, 9.384155%, 9.017944%)" fill-opacity="1" d="M 957.683594 1343.230469 L 957.683594 1571.058594 L 898.179688 1571.058594 L 898.179688 1476.871094 L 820.855469 1476.871094 L 820.855469 1571.058594 L 761.355469 1571.058594 L 761.355469 1343.230469 L 820.855469 1343.230469 L 820.855469 1425.640625 L 898.179688 1425.640625 L 898.179688 1343.230469 L 957.683594 1343.230469 "/>
<path fill-rule="nonzero" fill="rgb(10.063171%, 9.384155%, 9.017944%)" fill-opacity="1" d="M 1134.28125 1386.5 C 1117.089844 1386.5 1103.730469 1393.71875 1094.191406 1408.140625 C 1085.910156 1420.449219 1081.78125 1436.671875 1081.78125 1456.820312 C 1081.78125 1480.371094 1087.070312 1498.511719 1097.691406 1511.238281 C 1107.019531 1522.269531 1119.320312 1527.78125 1134.601562 1527.78125 C 1150.71875 1527.78125 1163.339844 1521.46875 1172.460938 1508.851562 C 1181.578125 1496.230469 1186.140625 1478.570312 1186.140625 1455.871094 C 1186.140625 1432.75 1180.839844 1415.039062 1170.230469 1402.730469 C 1161.109375 1391.910156 1149.121094 1386.5 1134.28125 1386.5 Z M 1134.601562 1337.5 C 1170.019531 1337.5 1198.238281 1350.019531 1219.238281 1375.050781 C 1237.261719 1396.898438 1246.28125 1424.261719 1246.28125 1457.140625 C 1246.28125 1495.121094 1234.609375 1525.238281 1211.28125 1547.511719 C 1190.921875 1567.03125 1165.351562 1576.789062 1134.601562 1576.789062 C 1098.53125 1576.789062 1069.890625 1564.269531 1048.679688 1539.238281 C 1030.441406 1517.601562 1021.320312 1490.238281 1021.320312 1457.140625 C 1021.320312 1419.171875 1032.558594 1389.480469 1055.050781 1368.050781 C 1076.679688 1347.679688 1103.199219 1337.5 1134.601562 1337.5 "/>
<path fill-rule="nonzero" fill="rgb(10.063171%, 9.384155%, 9.017944%)" fill-opacity="1" d="M 1369.738281 1392.230469 L 1369.738281 1448.230469 L 1408.878906 1448.230469 C 1431.359375 1448.230469 1442.609375 1438.898438 1442.609375 1420.230469 C 1442.609375 1401.988281 1430.621094 1392.761719 1406.648438 1392.550781 Z M 1310.238281 1343.230469 L 1404.109375 1343.230469 C 1434.230469 1343.230469 1455.96875 1347.789062 1469.339844 1356.910156 C 1490.128906 1370.910156 1500.519531 1392.128906 1500.519531 1420.550781 C 1500.519531 1443.671875 1492.671875 1462.339844 1476.96875 1476.550781 C 1463.398438 1488.859375 1443.351562 1495.011719 1416.828125 1495.011719 L 1369.738281 1495.011719 L 1369.738281 1571.058594 L 1310.238281 1571.058594 L 1310.238281 1343.230469 "/>
<path fill-rule="nonzero" fill="rgb(39.677429%, 38.580322%, 38.851929%)" fill-opacity="1" d="M 600.179688 1631.179688 L 594.363281 1631.179688 C 594.230469 1624.871094 590.195312 1621.71875 582.265625 1621.71875 C 579.019531 1621.71875 576.402344 1622.449219 574.421875 1623.910156 C 572.4375 1625.378906 571.445312 1627.308594 571.445312 1629.691406 C 571.445312 1631.5 572.042969 1632.929688 573.238281 1633.988281 C 574.433594 1635.050781 576.492188 1635.960938 579.425781 1636.71875 L 590.917969 1639.699219 C 598.21875 1641.640625 601.867188 1645.691406 601.867188 1651.871094 C 601.867188 1656.328125 600.089844 1659.960938 596.527344 1662.75 C 593.375 1665.191406 588.84375 1666.398438 582.9375 1666.398438 C 575.457031 1666.398438 570.027344 1664.148438 566.644531 1659.640625 C 564.84375 1657.210938 563.894531 1653.941406 563.808594 1649.839844 L 569.621094 1649.839844 L 569.621094 1649.980469 C 569.621094 1653.488281 570.824219 1656.210938 573.238281 1658.121094 C 575.648438 1660.039062 579.019531 1661 583.34375 1661 C 587.3125 1661 590.261719 1660.339844 592.199219 1659.03125 C 594.5 1657.460938 595.648438 1655.25 595.648438 1652.410156 C 595.648438 1648.800781 592.695312 1646.261719 586.792969 1644.769531 L 574.761719 1641.660156 C 568.449219 1640.039062 565.296875 1636.320312 565.296875 1630.511719 C 565.296875 1625.910156 567.027344 1622.351562 570.5 1619.820312 C 573.519531 1617.621094 577.507812 1616.511719 582.46875 1616.511719 C 589.496094 1616.511719 594.523438 1618.558594 597.542969 1622.660156 C 599.300781 1625.050781 600.179688 1627.640625 600.179688 1630.441406 C 600.179688 1630.570312 600.179688 1630.820312 600.179688 1631.179688 "/>
<path fill-rule="nonzero" fill="rgb(39.677429%, 38.580322%, 38.851929%)" fill-opacity="1" d="M 656.96875 1617.25 L 656.96875 1660.179688 L 680.835938 1660.179688 L 680.835938 1665.660156 L 650.816406 1665.660156 L 650.816406 1617.25 L 656.96875 1617.25 "/>
<path fill-rule="nonzero" fill="rgb(39.677429%, 38.580322%, 38.851929%)" fill-opacity="1" d="M 748.777344 1621.988281 C 743.277344 1621.988281 738.929688 1623.988281 735.730469 1628 C 732.980469 1631.519531 731.605469 1636 731.605469 1641.460938 C 731.605469 1647.71875 733.386719 1652.660156 736.945312 1656.261719 C 740.058594 1659.371094 744 1660.929688 748.777344 1660.929688 C 754.320312 1660.929688 758.691406 1658.921875 761.894531 1654.910156 C 764.640625 1651.398438 766.015625 1646.910156 766.015625 1641.460938 C 766.015625 1635.191406 764.234375 1630.261719 760.675781 1626.648438 C 757.566406 1623.539062 753.597656 1621.988281 748.777344 1621.988281 Z M 748.84375 1616.511719 C 756.324219 1616.511719 762.230469 1619.101562 766.558594 1624.289062 C 770.296875 1628.789062 772.167969 1634.519531 772.167969 1641.460938 C 772.167969 1649.429688 769.757812 1655.75 764.933594 1660.390625 C 760.695312 1664.398438 755.335938 1666.398438 748.84375 1666.398438 C 741.316406 1666.398438 735.390625 1663.808594 731.0625 1658.628906 C 727.320312 1654.121094 725.453125 1648.398438 725.453125 1641.460938 C 725.453125 1633.480469 727.886719 1627.171875 732.753906 1622.53125 C 736.945312 1618.519531 742.308594 1616.511719 748.84375 1616.511719 "/>
<path fill-rule="nonzero" fill="rgb(39.677429%, 38.580322%, 38.851929%)" fill-opacity="1" d="M 862.21875 1640.171875 L 862.21875 1665.660156 L 858.300781 1665.660156 L 856.742188 1658.828125 C 852.144531 1663.878906 846.648438 1666.398438 840.246094 1666.398438 C 833.214844 1666.398438 827.628906 1663.808594 823.480469 1658.628906 C 819.875 1654.078125 818.074219 1648.398438 818.074219 1641.589844 C 818.074219 1632.710938 820.980469 1625.890625 826.792969 1621.109375 C 830.578125 1618.039062 835.421875 1616.511719 841.328125 1616.511719 C 848.3125 1616.511719 853.675781 1618.628906 857.417969 1622.871094 C 859.445312 1625.160156 860.820312 1628.140625 861.542969 1631.789062 L 855.257812 1631.789062 C 854.578125 1628.730469 853 1626.328125 850.523438 1624.589844 C 848.042969 1622.859375 844.933594 1621.988281 841.191406 1621.988281 C 835.738281 1621.988281 831.4375 1623.96875 828.28125 1627.941406 C 825.578125 1631.410156 824.226562 1635.851562 824.226562 1641.25 C 824.226562 1647.570312 825.9375 1652.550781 829.363281 1656.199219 C 832.339844 1659.351562 836.414062 1660.929688 841.597656 1660.929688 C 846.285156 1660.929688 850.070312 1659.398438 852.957031 1656.328125 C 855.480469 1653.628906 856.742188 1650.339844 856.742188 1646.460938 L 856.742188 1645.648438 L 842.003906 1645.648438 L 842.003906 1640.171875 L 862.21875 1640.171875 "/>
<path fill-rule="nonzero" fill="rgb(39.677429%, 38.580322%, 38.851929%)" fill-opacity="1" d="M 937.125 1645.921875 L 929.6875 1623.949219 L 921.777344 1645.921875 Z M 938.882812 1651.121094 L 920.222656 1651.121094 L 915.085938 1665.660156 L 908.527344 1665.660156 L 925.769531 1617.25 L 933.746094 1617.25 L 950.714844 1665.660156 L 943.886719 1665.660156 L 938.882812 1651.121094 "/>
<path fill-rule="nonzero" fill="rgb(39.677429%, 38.580322%, 38.851929%)" fill-opacity="1" d="M 1035.089844 1617.25 L 1035.089844 1665.660156 L 1028.191406 1665.660156 L 1003.109375 1626.378906 L 1003.109375 1665.660156 L 997.296875 1665.660156 L 997.296875 1617.25 L 1003.988281 1617.25 L 1029.269531 1656.800781 L 1029.269531 1617.25 L 1035.089844 1617.25 "/>
<path fill-rule="nonzero" fill="rgb(39.677429%, 38.580322%, 38.851929%)" fill-opacity="1" d="M 1170.300781 1643.621094 L 1145.351562 1643.621094 L 1145.351562 1665.660156 L 1139.199219 1665.660156 L 1139.199219 1617.25 L 1145.351562 1617.25 L 1145.351562 1638.148438 L 1170.300781 1638.148438 L 1170.300781 1617.25 L 1176.449219 1617.25 L 1176.449219 1665.660156 L 1170.300781 1665.660156 L 1170.300781 1643.621094 "/>
<path fill-rule="nonzero" fill="rgb(39.677429%, 38.580322%, 38.851929%)" fill-opacity="1" d="M 1234.320312 1643.621094 L 1234.320312 1660.179688 L 1262.851562 1660.179688 L 1262.851562 1665.660156 L 1228.171875 1665.660156 L 1228.171875 1617.25 L 1261.699219 1617.25 L 1261.699219 1622.730469 L 1234.320312 1622.730469 L 1234.320312 1638.148438 L 1260.691406 1638.148438 L 1260.691406 1643.621094 L 1234.320312 1643.621094 "/>
<path fill-rule="nonzero" fill="rgb(39.677429%, 38.580322%, 38.851929%)" fill-opacity="1" d="M 1319.371094 1639.359375 L 1334.308594 1639.359375 C 1340.671875 1639.359375 1343.839844 1636.589844 1343.839844 1631.050781 C 1343.839844 1625.5 1340.671875 1622.730469 1334.308594 1622.730469 L 1319.371094 1622.730469 Z M 1319.371094 1644.839844 L 1319.371094 1665.660156 L 1313.21875 1665.660156 L 1313.21875 1617.25 L 1335.460938 1617.25 C 1340.601562 1617.25 1344.429688 1618.519531 1346.949219 1621.039062 C 1349.160156 1623.25 1350.269531 1626.308594 1350.269531 1630.230469 C 1350.269531 1632.980469 1349.671875 1635.261719 1348.46875 1637.058594 C 1347.28125 1638.871094 1345.308594 1640.441406 1342.558594 1641.800781 C 1344.769531 1642.648438 1346.390625 1643.800781 1347.429688 1645.238281 C 1348.460938 1646.730469 1349.050781 1649.769531 1349.179688 1654.371094 C 1349.269531 1657.75 1349.488281 1660.019531 1349.828125 1661.160156 C 1350.171875 1662.308594 1350.921875 1663.289062 1352.089844 1664.109375 L 1352.089844 1665.660156 L 1344.648438 1665.660156 C 1343.660156 1663.589844 1343.171875 1661.398438 1343.171875 1659.101562 L 1343.238281 1651.53125 C 1343.238281 1651.039062 1343.03125 1650.269531 1342.628906 1649.230469 C 1342.21875 1648.199219 1341.839844 1647.449219 1341.480469 1647 C 1340.261719 1645.558594 1338.191406 1644.839844 1335.261719 1644.839844 L 1319.371094 1644.839844 "/>
<path fill-rule="nonzero" fill="rgb(39.677429%, 38.580322%, 38.851929%)" fill-opacity="1" d="M 1407.660156 1643.621094 L 1407.660156 1660.179688 L 1436.191406 1660.179688 L 1436.191406 1665.660156 L 1401.511719 1665.660156 L 1401.511719 1617.25 L 1435.039062 1617.25 L 1435.039062 1622.730469 L 1407.660156 1622.730469 L 1407.660156 1638.148438 L 1434.03125 1638.148438 L 1434.03125 1643.621094 L 1407.660156 1643.621094 "/>
</svg>
