<svg xmlns="http://www.w3.org/2000/svg" width="40" height="40" viewBox="0 0 100 100">
  <defs>
    <linearGradient id="shopsyNavGradient" x1="0%" y1="0%" x2="100%" y2="100%">
      <stop offset="0%" style="stop-color:#FF6B6B;stop-opacity:1" />
      <stop offset="50%" style="stop-color:#4ECDC4;stop-opacity:1" />
      <stop offset="100%" style="stop-color:#45B7D1;stop-opacity:1" />
    </linearGradient>
    <linearGradient id="bagNavGradient" x1="0%" y1="0%" x2="100%" y2="100%">
      <stop offset="0%" style="stop-color:#FFE66D;stop-opacity:1" />
      <stop offset="100%" style="stop-color:#FF9F43;stop-opacity:1" />
    </linearGradient>
  </defs>
  
  <!-- Background Circle -->
  <circle cx="50" cy="50" r="48" fill="url(#shopsyNavGradient)" stroke="#ffffff" stroke-width="1"/>
  
  <!-- Shopping Bag -->
  <path d="M25 30 L75 30 L73 80 C73 83 70 85 67 85 L33 85 C30 85 27 83 27 80 Z" 
        fill="url(#bagNavGradient)" stroke="#ffffff" stroke-width="1.5"/>
  
  <!-- Bag Handles -->
  <path d="M35 30 C35 22 40 15 50 15 C60 15 65 22 65 30" 
        fill="none" stroke="#ffffff" stroke-width="2.5" stroke-linecap="round"/>
  
  <!-- Shopping Items (decorative dots) -->
  <circle cx="40" cy="50" r="2.5" fill="#ffffff" opacity="0.9"/>
  <circle cx="50" cy="45" r="2" fill="#ffffff" opacity="0.7"/>
  <circle cx="60" cy="52" r="2.5" fill="#ffffff" opacity="0.8"/>
  <circle cx="45" cy="65" r="1.5" fill="#ffffff" opacity="0.6"/>
  <circle cx="55" cy="68" r="2" fill="#ffffff" opacity="0.7"/>
</svg>